<svg width="128" height="32" viewBox="0 0 128 32" fill="none" xmlns="http://www.w3.org/2000/svg">
<path d="M123.249 9.47263C123.019 9.21452 122.763 8.98052 122.486 8.77423C122.6 7.88104 122.521 6.97378 122.255 6.11361C121.988 5.25344 121.541 4.46033 120.942 3.78774C119.497 2.15883 117.033 1.33331 113.619 1.33331H105.334C104.736 1.33491 104.157 1.54924 103.702 1.93804C103.247 2.32683 102.945 2.86475 102.85 3.45571L99.3966 25.3307C99.3477 25.6239 99.3634 25.9243 99.4425 26.2108C99.5216 26.4973 99.6623 26.7631 99.8547 26.9897C100.047 27.2163 100.287 27.3982 100.556 27.5228C100.826 27.6474 101.12 27.7115 101.417 27.7109H104.969L104.86 28.4049C104.816 28.6841 104.833 28.9695 104.909 29.2416C104.986 29.5136 105.121 29.7658 105.304 29.9808C105.488 30.1957 105.716 30.3683 105.973 30.4868C106.229 30.6052 106.508 30.6665 106.791 30.6666H111.104C111.662 30.6711 112.204 30.4763 112.632 30.1171C113.06 29.7579 113.346 29.258 113.438 28.707L114.292 23.332L114.307 23.2591H114.705C120.082 23.2591 123.44 20.6015 124.419 15.5755C124.717 14.538 124.767 13.4446 124.564 12.3842C124.361 11.3238 123.911 10.3263 123.249 9.47263ZM106.456 18.2721L105.504 24.3192L105.389 25.0442H102.141L105.463 3.99998H113.619C116.2 3.99998 118.042 4.53905 118.942 5.55206C119.367 6.04585 119.663 6.63687 119.804 7.27264C119.946 7.90841 119.928 8.56926 119.753 9.19651L119.728 9.34617C119.712 9.44814 119.697 9.54775 119.67 9.67446C119.413 11.5797 118.461 13.3227 116.997 14.5685C115.353 15.7116 113.372 16.2673 111.373 16.1458H108.942C108.342 16.1438 107.761 16.3573 107.305 16.7476C106.848 17.1378 106.547 17.6788 106.456 18.2721ZM121.802 15.0651C121.067 18.8359 118.812 20.5924 114.705 20.5924H114.061C113.501 20.5881 112.959 20.7835 112.531 21.1434C112.103 21.5034 111.818 22.0043 111.726 22.556L110.86 27.9883L107.623 28L108.261 23.9548L109.076 18.8177H111.368C111.577 18.8177 111.762 18.7863 111.965 18.7791C112.444 18.7626 112.921 18.7442 113.369 18.6886C113.643 18.6545 113.894 18.5923 114.156 18.5437C114.519 18.4765 114.883 18.4101 115.224 18.3153C115.478 18.2447 115.715 18.1537 115.956 18.0678C116.275 17.9546 116.589 17.8358 116.886 17.6963C117.11 17.5908 117.324 17.4735 117.535 17.3532C117.816 17.1939 118.089 17.0195 118.352 16.831C118.541 16.6942 118.728 16.5538 118.905 16.403C119.157 16.1861 119.396 15.9551 119.621 15.7111C119.772 15.5503 119.926 15.3943 120.065 15.2214C120.297 14.9265 120.51 14.6181 120.705 14.2979C120.807 14.135 120.92 13.9842 121.014 13.8128C121.284 13.3186 121.516 12.8045 121.708 12.2751C121.72 12.2433 121.737 12.2164 121.748 12.1844C121.753 12.1695 121.761 12.157 121.766 12.142C122.031 13.0969 122.043 14.104 121.802 15.0651Z" fill="white"/>
<path d="M20.3529 7.03223C18.8245 7.03162 17.3217 7.42422 15.9889 8.17229C14.6237 7.40924 13.0827 7.01639 11.5188 7.03273C9.95492 7.04907 8.42247 7.47401 7.0735 8.26542C5.72453 9.05682 4.60592 10.1872 3.82865 11.5443C3.05138 12.9015 2.64246 14.4383 2.64246 16.0023C2.64246 17.5663 3.05138 19.1031 3.82865 20.4602C4.60592 21.8174 5.72453 22.9478 7.0735 23.7392C8.42247 24.5306 9.95492 24.9555 11.5188 24.9719C13.0827 24.9882 14.6237 24.5953 15.9889 23.8323C17.1854 24.4993 18.5189 24.8832 19.8869 24.9548C21.2549 25.0263 22.6211 24.7834 23.8806 24.2448C25.1402 23.7063 26.2596 22.8863 27.153 21.8478C28.0463 20.8094 28.6899 19.58 29.0343 18.2542C29.3787 16.9283 29.4148 15.5412 29.1398 14.1992C28.8647 12.8572 28.2859 11.5961 27.4477 10.5126C26.6095 9.42912 25.5342 8.55208 24.3043 7.94878C23.0744 7.34548 21.7227 7.03196 20.3529 7.03229V7.03223ZM13.6495 21.9423C12.9995 22.1749 12.3153 22.2977 11.625 22.3057C9.95322 22.3057 8.34993 21.6416 7.16782 20.4595C5.9857 19.2774 5.3216 17.6741 5.3216 16.0023C5.3216 14.3306 5.9857 12.7273 7.16782 11.5452C8.34993 10.363 9.95322 9.69893 11.625 9.69893C12.3153 9.70691 12.9995 9.82972 13.6495 10.0623C12.1897 11.6965 11.3828 13.8111 11.3828 16.0023C11.3828 18.1936 12.1897 20.3081 13.6495 21.9423V21.9423ZM15.9889 20.5325C15.376 19.9478 14.8881 19.2449 14.5547 18.4662C14.2213 17.6876 14.0495 16.8493 14.0495 16.0023C14.0495 15.1552 14.2213 14.317 14.5547 13.5383C14.8881 12.7597 15.376 12.0567 15.9889 11.4721C16.6018 12.0567 17.0898 12.7597 17.4231 13.5383C17.7565 14.317 17.9284 15.1552 17.9284 16.0023C17.9284 16.8493 17.7565 17.6876 17.4231 18.4662C17.0898 19.2449 16.6018 19.9478 15.9889 20.5325ZM20.3529 22.3057C19.6625 22.2977 18.9784 22.1749 18.3284 21.9423C19.7881 20.3081 20.595 18.1936 20.595 16.0023C20.595 13.8111 19.7881 11.6965 18.3284 10.0623C18.9784 9.82972 19.6625 9.70691 20.3529 9.69893C22.0246 9.69893 23.6279 10.363 24.81 11.5452C25.9921 12.7273 26.6562 14.3306 26.6562 16.0023C26.6562 17.6741 25.9921 19.2774 24.81 20.4595C23.6279 21.6416 22.0246 22.3057 20.3529 22.3057V22.3057Z" fill="white"/>
<path d="M60 10.6667L54.0213 21.3334H50.6667V13.3334C50.6453 12.0707 50.2987 11.4867 49.3333 10.6667H53.3333V17.3334L57.3333 10.6667H60ZM61.312 10.6667L57.3427 21.3334H60L64 10.6667H61.312ZM76.6667 21.3334L76.708 19.2094L73.6667 19.1667L72.604 21.3334H70.3227L76 10.6667H78.6667L79.396 21.3334H76.6667ZM76.6667 13.3747L74.6667 17.3334H76.6453L76.6667 13.3747ZM67.444 12.972C68.2453 10.9707 70.6667 12.9174 71 13.112C71.2773 12.696 71.7507 12.0294 72 11.668C71.056 10.584 67.2427 9.52802 65.3053 11.9187C62 16.0027 68.8053 17.1974 67.6107 18.8347C66.8413 19.8894 64.7773 19.7227 63.2773 18.7227C63.0547 19.14 62.36 20.3894 62.36 20.3894C63.5827 21.1974 64.4987 21.3347 65.7773 21.3347C67.056 21.3347 69.5907 21.1334 70.3227 18.64C71.3893 15 66.556 15.1947 67.444 12.972ZM48 6.66669H80V8.00002H48V6.66669ZM48 24H80V25.3334H48V24Z" fill="white"/>
</svg>
