<svg width="64" height="64" viewBox="0 0 64 64" fill="none" xmlns="http://www.w3.org/2000/svg">
<path d="M46.98 14.9899C46.162 14.1779 45.419 13.4379 44.613 12.7359C33.064 2.39493 23.595 4.60493 19.293 7.02193C18.322 7.56693 17.265 8.32193 16.206 9.19393C15.5 8.67193 14.655 8.58993 14.199 9.04093L13.905 9.33193C12.228 8.95393 10.462 9.00793 8.769 9.70393C3.94 11.6869 2 16.5339 2 22.6689C2 33.0869 8.071 40.7199 11.43 46.1029C13.638 49.6399 16.489 54.5639 16.489 57.6659H18.88C18.88 53.8909 15.863 48.6979 13.464 44.8559C10.097 39.4609 4.391 32.4109 4.392 22.6669C4.392 17.5239 5.777 13.4929 9.684 11.8899C10.3403 11.623 11.0406 11.4806 11.749 11.4699L11.602 11.6149C11.147 12.0689 11.23 12.9049 11.757 13.6049C10.877 14.6549 10.115 15.7019 9.565 16.6659C7.127 20.9299 4.897 30.3159 15.329 41.7649C16.047 42.5739 16.791 43.3069 17.603 44.1119C36.001 62.3499 50.145 61.3269 57.246 54.2879C64.347 47.2489 65.379 33.2289 46.98 14.9899ZM41.672 12.7849C38.393 14.2429 35.387 16.5779 32.471 18.8829L21.559 8.06493C26.104 5.98993 32.952 5.53893 41.672 12.7849ZM19.749 9.04493L30.924 20.1219C29.4486 21.3556 28.0254 22.6504 26.658 24.0029C25.3069 25.3454 24.0128 26.744 22.779 28.1949L11.603 17.1169C13.386 14.3509 16.956 10.8109 19.749 9.04493ZM15.376 38.8499C8.068 30.2069 8.522 23.4189 10.616 18.9119L21.528 29.7279C19.205 32.6179 16.85 35.5989 15.376 38.8499ZM55.848 52.8999C47.65 61.0259 33.532 57.1289 19.001 42.7249C18.266 41.9973 17.5458 41.2549 16.841 40.4979C18.218 37.0119 20.985 33.5509 23.518 30.3999C24.72 28.9059 26.484 26.9489 28.075 25.3719C29.658 23.8029 31.634 22.0519 33.142 20.8599C36.328 18.3399 39.81 15.6009 43.335 14.2359C44.054 14.8879 44.925 15.7249 45.581 16.3769C60.111 30.7799 64.045 44.7739 55.848 52.8999Z" fill="black"/>
<g clip-path="url(#clip0_29_37)">
<path d="M47.2133 31.5552L46.5829 33.6092L48.637 34.2396L49.9127 30.0827C50.0928 29.4958 50.0464 28.9375 49.7734 28.4078C49.5004 27.8781 49.0773 27.5253 48.5041 27.3494L38.3145 24.2758C37.7413 24.0999 37.1956 24.1465 36.6775 24.4155C36.1594 24.6846 35.8102 25.1126 35.6301 25.6994L34.3544 29.8564L36.4084 30.4867L37.0388 28.4327L47.2133 31.5552ZM34.9557 41.0107L36.839 39.9833L34.6114 35.6609L38.8802 33.3322L37.8974 31.4253L31.7453 34.7814L34.9557 41.0107ZM40.8993 41.2294L41.8821 43.1363L48.0342 39.7803L44.8238 33.551L42.9405 34.5783L45.1681 38.9007L40.8993 41.2294ZM32.5662 43.0064L33.1966 40.9524L31.1425 40.3221L29.8668 44.479C29.6867 45.0659 29.7331 45.6241 30.0061 46.1538C30.2791 46.6835 30.7022 47.0364 31.2754 47.2123L41.45 50.3348C42.0232 50.5107 42.5714 50.456 43.0945 50.1706C43.6176 49.8852 43.9693 49.4491 44.1494 48.8622L45.4251 44.7053L43.3711 44.0749L42.7407 46.1289L32.5662 43.0064Z" fill="#31508C"/>
</g>
<defs>
<clipPath id="clip0_29_37">
<rect width="17.1885" height="24.555" fill="white" transform="matrix(-0.955993 -0.293388 -0.293388 0.955993 51.6362 28.043)"/>
</clipPath>
</defs>
</svg>
