<svg width="56" height="56" viewBox="0 0 56 56" fill="none" xmlns="http://www.w3.org/2000/svg">
<rect width="56" height="56" rx="8" fill="#31508C"/>
<path d="M42.8333 11.3334H13.1667C12.6804 11.3334 12.2141 11.5266 11.8703 11.8704C11.5265 12.2142 11.3333 12.6805 11.3333 13.1668V42.8334C11.3333 43.0742 11.3808 43.3126 11.4729 43.535C11.565 43.7575 11.7001 43.9596 11.8703 44.1298C12.0406 44.3 12.2427 44.4351 12.4651 44.5272C12.6875 44.6194 12.9259 44.6668 13.1667 44.6668H29.1333V31.7501H24.8V26.7501H29.1333V23.0001C29.0436 22.1197 29.1475 21.2303 29.4379 20.3943C29.7282 19.5583 30.198 18.796 30.8141 18.1608C31.4303 17.5256 32.178 17.0328 33.0047 16.7172C33.8315 16.4015 34.7173 16.2705 35.6 16.3334C36.8972 16.3255 38.1938 16.3922 39.4833 16.5334V21.0334H36.8333C34.7333 21.0334 34.3333 22.0334 34.3333 23.4834V26.7001H39.3333L38.6833 31.7001H34.3333V44.6668H42.8333C43.0741 44.6668 43.3125 44.6194 43.5349 44.5272C43.7574 44.4351 43.9595 44.3 44.1297 44.1298C44.2999 43.9596 44.435 43.7575 44.5271 43.535C44.6193 43.3126 44.6667 43.0742 44.6667 42.8334V13.1668C44.6667 12.926 44.6193 12.6876 44.5271 12.4652C44.435 12.2428 44.2999 12.0406 44.1297 11.8704C43.9595 11.7002 43.7574 11.5651 43.5349 11.473C43.3125 11.3809 43.0741 11.3334 42.8333 11.3334Z" fill="#FAFAFA"/>
</svg>
