<svg width="24" height="24" viewBox="0 0 24 24" fill="none" xmlns="http://www.w3.org/2000/svg">
<path d="M19.4397 12.9998C19.2197 12.9998 18.9897 12.9298 18.7697 12.8798C18.3242 12.7816 17.8864 12.6513 17.4597 12.4898C16.9958 12.321 16.4859 12.3298 16.028 12.5144C15.5702 12.699 15.1968 13.0464 14.9797 13.4898L14.7597 13.9398C13.7857 13.398 12.8907 12.725 12.0997 11.9398C11.3145 11.1488 10.6416 10.2538 10.0997 9.27981L10.5197 8.99981C10.9631 8.78272 11.3105 8.40934 11.4951 7.9515C11.6797 7.49366 11.6885 6.98372 11.5197 6.51981C11.361 6.09223 11.2307 5.65461 11.1297 5.20981C11.0797 4.98981 11.0397 4.75981 11.0097 4.52981C10.8883 3.82543 10.5194 3.18755 9.96936 2.73105C9.41935 2.27454 8.72443 2.02942 8.00974 2.03981H5.00974C4.57877 2.03576 4.15198 2.12462 3.75844 2.30034C3.3649 2.47605 3.01384 2.7345 2.72917 3.05809C2.44449 3.38168 2.23287 3.7628 2.10872 4.17552C1.98458 4.58824 1.95081 5.02287 2.00973 5.44981C2.54247 9.63919 4.45576 13.5317 7.44739 16.5124C10.439 19.4932 14.3384 21.3923 18.5297 21.9098H18.9097C19.6472 21.9109 20.3591 21.6403 20.9097 21.1498C21.2261 20.8669 21.4788 20.52 21.6512 20.1321C21.8236 19.7443 21.9117 19.3242 21.9097 18.8998V15.8998C21.8975 15.2052 21.6445 14.5364 21.1941 14.0075C20.7436 13.4786 20.1236 13.1224 19.4397 12.9998ZM19.9397 18.9998C19.9396 19.1418 19.9091 19.2821 19.8505 19.4114C19.7919 19.5407 19.7064 19.6561 19.5997 19.7498C19.488 19.8463 19.3573 19.9184 19.2161 19.9614C19.0749 20.0045 18.9263 20.0175 18.7797 19.9998C15.0346 19.5196 11.556 17.8063 8.89245 15.1301C6.22893 12.4539 4.53215 8.96714 4.06974 5.21981C4.05382 5.07333 4.06777 4.92514 4.11074 4.7842C4.15371 4.64326 4.2248 4.51249 4.31974 4.39981C4.41345 4.29314 4.5288 4.20765 4.65811 4.14902C4.78743 4.0904 4.92775 4.05999 5.06974 4.05981H8.06974C8.30228 4.05463 8.52936 4.13069 8.71188 4.27488C8.8944 4.41907 9.02095 4.62238 9.06974 4.84981C9.10974 5.12314 9.15974 5.39314 9.21974 5.65981C9.33526 6.18695 9.48899 6.70499 9.67974 7.20981L8.27974 7.85981C8.16003 7.91473 8.05236 7.99275 7.96289 8.0894C7.87343 8.18605 7.80394 8.29942 7.75841 8.423C7.71288 8.54658 7.69221 8.67794 7.69758 8.80953C7.70296 8.94112 7.73428 9.07035 7.78973 9.18981C9.22894 12.2726 11.707 14.7506 14.7897 16.1898C15.0332 16.2898 15.3063 16.2898 15.5497 16.1898C15.6744 16.1452 15.7891 16.0763 15.8869 15.987C15.9848 15.8977 16.0639 15.7899 16.1197 15.6698L16.7397 14.2698C17.2567 14.4547 17.7843 14.6083 18.3197 14.7298C18.5864 14.7898 18.8564 14.8398 19.1297 14.8798C19.3572 14.9286 19.5605 15.0551 19.7047 15.2377C19.8489 15.4202 19.9249 15.6473 19.9197 15.8798L19.9397 18.9998Z" fill="#FFF323"/>
</svg>
