<svg width="43" height="37" viewBox="0 0 43 37" fill="none" xmlns="http://www.w3.org/2000/svg">
<path d="M34.1494 19.9127L32.7166 26.2974C32.5399 27.0026 31.8165 27.4315 30.9822 27.4395H10.0934L9.67864 29.2554H29.5871C30.6354 29.3173 31.3465 29.8941 31.3593 30.6318C31.283 31.4444 30.5405 31.9983 29.5871 32.0084H7.56712C6.37622 31.9252 5.66609 31.1878 5.79496 30.3683L6.73759 26.3852L5.30478 15.1973L1.23261 14.2016C0.237483 13.8947 -0.168672 13.1954 0.0637461 12.4736C0.450198 11.7214 1.3762 11.3777 2.28836 11.5657L7.4917 12.8544C8.19268 13.0585 8.59593 13.5042 8.69826 14.0259L8.9999 16.2517L32.6035 18.3019C33.688 18.4843 34.2767 19.1516 34.1494 19.9127V19.9127ZM12.9626 34.8986C12.9626 36.0592 11.7514 37 10.2572 37C8.76307 37 7.55186 36.0592 7.55186 34.8986C7.55186 33.7381 8.76309 32.7972 10.2572 32.7972C11.7513 32.7973 12.9626 33.7381 12.9626 34.8986ZM29.1134 34.8986C29.1134 36.0592 27.9022 37 26.408 37C24.9139 37 23.7027 36.0592 23.7027 34.8986C23.7027 33.7381 24.9139 32.7972 26.408 32.7972C27.9022 32.7973 29.1134 33.7381 29.1134 34.8986Z" fill="#31508C"/>
<path d="M30.75 1C37.1388 1 41.9999 7.23269 42 14.4883C42 21.744 37.1389 27.9775 30.75 27.9775C24.3611 27.9775 19.5 21.744 19.5 14.4883C19.5001 7.23269 24.3612 1 30.75 1Z" fill="#FFF323" stroke="white" stroke-width="2"/>
<path d="M26.8372 15.4467V14.6187L31.0492 8.78666H32.3572V14.4987H33.5572V15.4467H32.3572V17.3787H31.2772V15.4467H26.8372ZM31.3252 9.92666L28.0972 14.4987H31.3252V9.92666Z" fill="white"/>
</svg>
