<svg width="56" height="56" viewBox="0 0 56 56" fill="none" xmlns="http://www.w3.org/2000/svg">
<rect width="56" height="56" rx="8" fill="#31508C"/>
<g clip-path="url(#clip0_41_420)">
<path d="M22.1833 41.3331H22.05C19.3639 41.3096 16.7167 40.689 14.3 39.5164C13.8555 39.3076 13.4894 38.962 13.2555 38.5301C13.0216 38.0982 12.932 37.6028 13 37.1164C13.0739 36.6267 13.3006 36.1728 13.6478 35.8197C13.995 35.4665 14.4449 35.232 14.9333 35.1497C16.431 34.9499 17.8718 34.4451 19.1667 33.6664C16.9186 31.9088 15.1879 29.5757 14.158 26.9144C13.1281 24.2532 12.8374 21.3628 13.3167 18.5497C13.3816 18.1042 13.5733 17.6866 13.8687 17.3468C14.1642 17.0071 14.5511 16.7593 14.9833 16.6331C15.4039 16.501 15.8539 16.4954 16.2776 16.6169C16.7013 16.7383 17.08 16.9816 17.3667 17.3164C18.34 18.5927 19.5632 19.6574 20.9615 20.4454C22.3599 21.2334 23.9041 21.7282 25.5 21.8997C25.5762 19.9362 26.4201 18.0809 27.85 16.7331C28.564 16.0494 29.4069 15.5146 30.3297 15.1599C31.2524 14.8053 32.2365 14.6378 33.2247 14.6673C34.2128 14.6967 35.1852 14.9226 36.0851 15.3316C36.9851 15.7406 37.7947 16.3247 38.4667 17.0497C38.6417 17.2045 38.8593 17.3032 39.0911 17.3329C39.3228 17.3626 39.5582 17.322 39.7667 17.2164C40.1641 17.029 40.6065 16.9584 41.0425 17.013C41.4785 17.0675 41.8899 17.2449 42.2289 17.5245C42.5679 17.804 42.8203 18.1742 42.9569 18.5918C43.0934 19.0095 43.1084 19.4573 43 19.8831C42.6156 21.4666 41.8872 22.9461 40.8667 24.2164C40.6417 28.9577 38.5514 33.4177 35.0516 36.6241C31.5517 39.8305 26.9261 41.5232 22.1833 41.3331ZM22.1833 37.9997H22.3167C24.2544 38.0664 26.1862 37.7477 27.9999 37.0622C29.8136 36.3767 31.4732 35.3379 32.8824 34.0062C34.2916 32.6745 35.4225 31.0763 36.2094 29.3042C36.9964 27.5322 37.4237 25.6215 37.4667 23.6831C37.4942 23.1518 37.7133 22.6486 38.0833 22.2664C38.4898 21.7518 38.8365 21.1927 39.1167 20.5997C38.5162 20.6009 37.9223 20.4753 37.3738 20.2312C36.8252 19.9871 36.3344 19.6299 35.9333 19.1831C35.5477 18.8007 35.0896 18.499 34.5859 18.2959C34.0822 18.0927 33.5431 17.992 33 17.9997C32.4515 17.9856 31.9056 18.0799 31.3936 18.2772C30.8817 18.4746 30.4137 18.7711 30.0167 19.1497C29.481 19.6581 29.0882 20.2982 28.8776 21.006C28.667 21.7139 28.646 22.4646 28.8167 23.1831L29.25 25.0831L27.3 25.2164C25.3018 25.3794 23.2921 25.106 21.41 24.4153C19.5279 23.7247 17.8185 22.6332 16.4 21.2164C16.3392 23.4104 16.888 25.5783 17.9855 27.479C19.083 29.3798 20.6861 30.9389 22.6167 31.9831L24.2 32.8831L23.15 34.3831C22.0145 35.8723 20.4586 36.9869 18.6833 37.5831C19.8222 37.8685 20.9926 38.0085 22.1667 37.9997H22.1833Z" fill="#FAFAFA"/>
</g>
<defs>
<clipPath id="clip0_41_420">
<rect width="40" height="40" fill="white" transform="translate(8 8)"/>
</clipPath>
</defs>
</svg>
