<svg width="17" height="15" viewBox="0 0 17 15" fill="none" xmlns="http://www.w3.org/2000/svg">
<path d="M13.1452 15C12.9798 14.9996 12.8148 14.9832 12.6532 14.9511C9.57649 14.3768 6.74199 13.0303 4.47598 11.0665C2.25831 9.09838 0.720246 6.59255 0.0478653 3.85217C-0.0314169 3.51064 -0.0119579 3.15645 0.10437 2.82366C0.220698 2.49088 0.42998 2.19071 0.712082 1.95203L2.68013 0.242794C2.78065 0.157015 2.90009 0.0913281 3.03065 0.050019C3.16121 0.00870986 3.29995 -0.00729258 3.43783 0.00305605C3.58079 0.0165137 3.71875 0.0580684 3.842 0.124798C3.96526 0.191527 4.07081 0.281811 4.15125 0.3893L6.61131 3.67015C6.70356 3.79745 6.7481 3.94811 6.73835 4.09996C6.72861 4.25181 6.66511 4.39683 6.55719 4.51367L5.32224 5.84555C5.81408 6.82778 6.51062 7.71553 7.37393 8.46046C8.23165 9.23241 9.24546 9.84881 10.3604 10.2763L11.8906 9.17967C12.0191 9.08803 12.1755 9.03384 12.339 9.02433C12.5024 9.01481 12.6652 9.05041 12.8057 9.1264L16.5204 11.2929C16.6479 11.3616 16.7565 11.4554 16.8381 11.5673C16.9197 11.6793 16.9722 11.8064 16.9916 11.9392C17.011 12.072 16.9968 12.2071 16.9502 12.3343C16.9035 12.4615 16.8256 12.5775 16.7222 12.6736L14.8033 14.3873C14.5853 14.583 14.3266 14.7379 14.0421 14.843C13.7575 14.9482 13.4527 15.0015 13.1452 15V15ZM3.35911 0.882094L1.39106 2.59133C1.23236 2.72476 1.11489 2.89317 1.05019 3.07999C0.985485 3.26681 0.975789 3.46561 1.02205 3.65683C1.64726 6.2283 3.08443 8.58135 5.15987 10.4316C7.29235 12.2792 9.95975 13.5457 12.8549 14.0854C13.0741 14.1268 13.3012 14.1184 13.5159 14.061C13.7305 14.0037 13.9261 13.8992 14.085 13.7569L16.0038 12.0432L12.4171 9.95216L10.7737 11.1331C10.7108 11.178 10.6367 11.2084 10.5578 11.2215C10.4789 11.2347 10.3976 11.2302 10.3211 11.2086C8.95659 10.7549 7.72004 10.0348 6.69987 9.09976C5.64468 8.21061 4.82561 7.11794 4.30377 5.90326C4.28169 5.82973 4.28096 5.7523 4.30164 5.67844C4.32232 5.60457 4.36372 5.53675 4.42185 5.4815L5.75029 4.04752L3.35911 0.882094Z" fill="white"/>
</svg>
