<svg width="64" height="64" viewBox="0 0 64 64" fill="none" xmlns="http://www.w3.org/2000/svg">
<path d="M46.98 14.99C46.162 14.178 45.419 13.438 44.613 12.736C33.064 2.39499 23.595 4.60499 19.293 7.02199C18.322 7.56699 17.265 8.32199 16.206 9.19399C15.5 8.67199 14.655 8.58999 14.199 9.04099L13.905 9.33199C12.228 8.95399 10.462 9.00799 8.769 9.70399C3.94 11.687 2 16.534 2 22.669C2 33.087 8.071 40.72 11.43 46.103C13.638 49.64 16.489 54.564 16.489 57.666H18.88C18.88 53.891 15.863 48.698 13.464 44.856C10.097 39.461 4.391 32.411 4.392 22.667C4.392 17.524 5.777 13.493 9.684 11.89C10.3403 11.6231 11.0406 11.4806 11.749 11.47L11.602 11.615C11.147 12.069 11.23 12.905 11.757 13.605C10.877 14.655 10.115 15.702 9.565 16.666C7.127 20.93 4.897 30.316 15.329 41.765C16.047 42.574 16.791 43.307 17.603 44.112C36.001 62.35 50.145 61.327 57.246 54.288C64.347 47.249 65.379 33.229 46.98 14.99ZM41.672 12.785C38.393 14.243 35.387 16.578 32.471 18.883L21.559 8.06499C26.104 5.98999 32.952 5.53899 41.672 12.785ZM19.749 9.04499L30.924 20.122C29.4486 21.3557 28.0254 22.6505 26.658 24.003C25.3069 25.3455 24.0128 26.744 22.779 28.195L11.603 17.117C13.386 14.351 16.956 10.811 19.749 9.04499V9.04499ZM15.376 38.85C8.068 30.207 8.522 23.419 10.616 18.912L21.528 29.728C19.205 32.618 16.85 35.599 15.376 38.85V38.85ZM55.848 52.9C47.65 61.026 33.532 57.129 19.001 42.725C18.266 41.9974 17.5458 41.2549 16.841 40.498C18.218 37.012 20.985 33.551 23.518 30.4C24.72 28.906 26.484 26.949 28.075 25.372C29.658 23.803 31.634 22.052 33.142 20.86C36.328 18.34 39.81 15.601 43.335 14.236C44.054 14.888 44.925 15.725 45.581 16.377C60.111 30.78 64.045 44.774 55.848 52.9Z" fill="white"/>
<g clip-path="url(#clip0_41_406)">
<path d="M47.2133 31.5551L46.5829 33.6091L48.637 34.2395L49.9127 30.0826C50.0928 29.4957 50.0464 28.9374 49.7734 28.4077C49.5004 27.878 49.0773 27.5252 48.5041 27.3493L38.3145 24.2757C37.7413 24.0998 37.1956 24.1464 36.6775 24.4154C36.1594 24.6845 35.8102 25.1125 35.6301 25.6993L34.3544 29.8563L36.4084 30.4866L37.0388 28.4326L47.2133 31.5551ZM34.9557 41.0106L36.839 39.9832L34.6114 35.6608L38.8802 33.3322L37.8974 31.4252L31.7453 34.7813L34.9557 41.0106ZM40.8993 41.2293L41.8821 43.1363L48.0342 39.7802L44.8238 33.5509L42.9405 34.5782L45.1681 38.9006L40.8993 41.2293ZM32.5662 43.0063L33.1966 40.9523L31.1425 40.322L29.8668 44.4789C29.6867 45.0658 29.7331 45.624 30.0061 46.1537C30.2791 46.6835 30.7022 47.0363 31.2754 47.2122L41.45 50.3347C42.0232 50.5106 42.5714 50.4559 43.0945 50.1705C43.6176 49.8851 43.9693 49.449 44.1494 48.8621L45.4251 44.7052L43.3711 44.0748L42.7407 46.1288L32.5662 43.0063Z" fill="#31508C"/>
</g>
<defs>
<clipPath id="clip0_41_406">
<rect width="17.1885" height="24.555" fill="white" transform="matrix(-0.955993 -0.293388 -0.293388 0.955993 51.6362 28.043)"/>
</clipPath>
</defs>
</svg>
