<svg width="56" height="56" viewBox="0 0 56 56" fill="none" xmlns="http://www.w3.org/2000/svg">
<rect width="56" height="56" rx="8" fill="#31508C"/>
<path d="M36.9 17.1001C36.5044 17.1001 36.1178 17.2174 35.7889 17.4372C35.46 17.6569 35.2036 17.9693 35.0523 18.3347C34.9009 18.7002 34.8613 19.1023 34.9384 19.4903C35.0156 19.8782 35.2061 20.2346 35.4858 20.5143C35.7655 20.794 36.1219 20.9845 36.5098 21.0617C36.8978 21.1388 37.2999 21.0992 37.6654 20.9479C38.0308 20.7965 38.3432 20.5401 38.563 20.2112C38.7827 19.8823 38.9 19.4957 38.9 19.1001C38.9 18.5697 38.6893 18.061 38.3142 17.6859C37.9392 17.3108 37.4304 17.1001 36.9 17.1001ZM44.5667 21.1334C44.5343 19.7506 44.2753 18.3824 43.8 17.0834C43.3762 15.972 42.7167 14.9656 41.8667 14.1334C41.0414 13.2791 40.0326 12.6237 38.9167 12.2168C37.6211 11.727 36.2514 11.4621 34.8667 11.4334C33.1 11.3334 32.5333 11.3334 28 11.3334C23.4667 11.3334 22.9 11.3334 21.1333 11.4334C19.7486 11.4621 18.3789 11.727 17.0833 12.2168C15.9695 12.6278 14.9616 13.2827 14.1333 14.1334C13.2791 14.9587 12.6236 15.9675 12.2167 17.0834C11.7269 18.379 11.462 19.7487 11.4333 21.1334C11.3333 22.9001 11.3333 23.4668 11.3333 28.0001C11.3333 32.5334 11.3333 33.1001 11.4333 34.8668C11.462 36.2515 11.7269 37.6212 12.2167 38.9168C12.6236 40.0327 13.2791 41.0415 14.1333 41.8668C14.9616 42.7175 15.9695 43.3724 17.0833 43.7834C18.3789 44.2732 19.7486 44.5381 21.1333 44.5668C22.9 44.6668 23.4667 44.6668 28 44.6668C32.5333 44.6668 33.1 44.6668 34.8667 44.5668C36.2514 44.5381 37.6211 44.2732 38.9167 43.7834C40.0326 43.3765 41.0414 42.7211 41.8667 41.8668C42.7204 41.0377 43.3806 40.0304 43.8 38.9168C44.2753 37.6178 44.5343 36.2496 44.5667 34.8668C44.5667 33.1001 44.6667 32.5334 44.6667 28.0001C44.6667 23.4668 44.6667 22.9001 44.5667 21.1334ZM41.5667 34.6668C41.5545 35.7247 41.3629 36.7729 41 37.7668C40.7339 38.4921 40.3065 39.1475 39.75 39.6834C39.2094 40.2343 38.5554 40.6608 37.8333 40.9334C36.8395 41.2964 35.7913 41.488 34.7333 41.5001C33.0667 41.5834 32.45 41.6001 28.0667 41.6001C23.6833 41.6001 23.0667 41.6001 21.4 41.5001C20.3015 41.5207 19.2077 41.3515 18.1667 41.0001C17.4763 40.7136 16.8523 40.2881 16.3333 39.7501C15.7802 39.2147 15.3581 38.5588 15.1 37.8334C14.6931 36.8254 14.4674 35.7533 14.4333 34.6668C14.4333 33.0001 14.3333 32.3834 14.3333 28.0001C14.3333 23.6168 14.3333 23.0001 14.4333 21.3334C14.4408 20.2519 14.6383 19.18 15.0167 18.1668C15.3101 17.4633 15.7605 16.8362 16.3333 16.3334C16.8397 15.7604 17.4655 15.3053 18.1667 15.0001C19.1826 14.6335 20.2533 14.4419 21.3333 14.4334C23 14.4334 23.6167 14.3334 28 14.3334C32.3833 14.3334 33 14.3334 34.6667 14.4334C35.7246 14.4456 36.7729 14.6372 37.7667 15.0001C38.5241 15.2812 39.2038 15.7382 39.75 16.3334C40.2962 16.8454 40.7229 17.4713 41 18.1668C41.3704 19.1817 41.5622 20.2531 41.5667 21.3334C41.65 23.0001 41.6667 23.6168 41.6667 28.0001C41.6667 32.3834 41.65 33.0001 41.5667 34.6668ZM28 19.4501C26.3097 19.4534 24.6583 19.9576 23.2544 20.8991C21.8506 21.8406 20.7573 23.1771 20.1127 24.7397C19.4682 26.3023 19.3012 28.0209 19.633 29.6783C19.9648 31.3358 20.7804 32.8577 21.9768 34.0517C23.1732 35.2458 24.6967 36.0585 26.3548 36.387C28.0129 36.7156 29.7311 36.5453 31.2925 35.8977C32.8538 35.25 34.1881 34.1542 35.1269 32.7485C36.0656 31.3428 36.5667 29.6904 36.5667 28.0001C36.5689 26.8753 36.3487 25.7611 35.9187 24.7217C35.4888 23.6823 34.8576 22.7381 34.0615 21.9435C33.2653 21.1489 32.3199 20.5196 31.2797 20.0917C30.2394 19.6637 29.1248 19.4457 28 19.4501ZM28 33.5501C26.9023 33.5501 25.8293 33.2246 24.9166 32.6148C24.0039 32.0049 23.2925 31.1381 22.8725 30.124C22.4524 29.1099 22.3425 27.9939 22.5567 26.9174C22.7708 25.8408 23.2994 24.8518 24.0756 24.0757C24.8517 23.2995 25.8407 22.7709 26.9173 22.5567C27.9939 22.3426 29.1098 22.4525 30.1239 22.8726C31.138 23.2926 32.0048 24.004 32.6147 24.9167C33.2245 25.8294 33.55 26.9024 33.55 28.0001C33.55 28.7289 33.4065 29.4506 33.1275 30.124C32.8486 30.7974 32.4398 31.4092 31.9245 31.9245C31.4091 32.4399 30.7973 32.8487 30.1239 33.1276C29.4505 33.4065 28.7288 33.5501 28 33.5501Z" fill="#FAFAFA"/>
</svg>
