<svg width="24" height="25" viewBox="0 0 24 25" fill="none" xmlns="http://www.w3.org/2000/svg">
<path d="M19 4.5H5C4.20435 4.5 3.44129 4.81607 2.87868 5.37868C2.31607 5.94129 2 6.70435 2 7.5V17.5C2 18.2956 2.31607 19.0587 2.87868 19.6213C3.44129 20.1839 4.20435 20.5 5 20.5H19C19.7956 20.5 20.5587 20.1839 21.1213 19.6213C21.6839 19.0587 22 18.2956 22 17.5V7.5C22 6.70435 21.6839 5.94129 21.1213 5.37868C20.5587 4.81607 19.7956 4.5 19 4.5ZM18.427 6.5L12.6 11.3C12.4335 11.4267 12.2312 11.4976 12.022 11.5026C11.8129 11.5077 11.6074 11.4465 11.435 11.328L5.573 6.5H18.427ZM19 18.5H5C4.73478 18.5 4.48043 18.3946 4.29289 18.2071C4.10536 18.0196 4 17.7652 4 17.5V7.8L10.2 12.9C10.7159 13.2863 11.3435 13.4944 11.988 13.493C12.6551 13.492 13.3037 13.274 13.836 12.872L20 7.8V17.5C20 17.7652 19.8946 18.0196 19.7071 18.2071C19.5196 18.3946 19.2652 18.5 19 18.5Z" fill="#FFF323"/>
</svg>
